# xmcd
#
# Track frame offsets:
#	150
#	11364
#	22677
#	35647
#	46256
#	67791
#	78019
#	92874
#	105826
#	119937
#	129459
#	145440
#
# Disc length: 2099 seconds
#
# Revision: 1
# Processed by: cddbd v1.5.2PL0 Copyright (c) Steve Scherf et al.
# Submitted via: audiograbber 1.80
#
DISCID=8f08310c
DTITLE=julehits for børn - julehits for børn
DYEAR=1900
DGENRE=
TTITLE0=tommy rasmussen - nissehop a go go
TTITLE1=lone munkeskov - gavesangen
TTITLE2=tommy rasmussen - søren banjomus
TTITLE3=lone munkeskov - decembersangen
TTITLE4=tommy rasmussen - et barn er født i bethlehem
TTITLE5=lone munkeskov - der bor en nissemand/røde huer strømper grå/nissen er 
TTITLE5=en kunstig mand
TTITLE6=tommy rasmussen - karlas julesang
TTITLE7=lone munkeskov - juletræet med sin pynt
TTITLE8=tommy rasmussen - dengang jeg var en lille dreng
TTITLE9=lone munkeskov - der var engang
TTITLE10=lone munkeskov and tommy rasmussen - tænd et lys
TTITLE11=lone munkeskov - bjældeklang
EXTD=
EXTT0=
EXTT1=
EXTT2=
EXTT3=
EXTT4=
EXTT5=
EXTT6=
EXTT7=
EXTT8=
EXTT9=
EXTT10=
EXTT11=
PLAYORDER=
